<?xml version="1.0" encoding="utf-8"?>
<!DOCTYPE svg PUBLIC "-//W3C//DTD SVG 1.0//EN" "http://www.w3.org/TR/2001/REC-SVG-20010904/DTD/svg10.dtd">
<svg version="1.0" xmlns="http://www.w3.org/2000/svg" width="512px" height="512px" viewBox="0 0 512 512" preserveAspectRatio="xMidYMid meet">
 <g fill="#ffffff">
  <path d="M70.5 388.2 c-3 -0.6 -5.5 -3.2 -5.5 -5.7 0 -1.2 8.8 -16.4 19.7 -33.6 10.8 -17.3 27.8 -44.4 37.8 -60.4 9.9 -15.9 22 -35.1 26.7 -42.5 7.5 -11.9 27.2 -43.1 53.3 -84.5 20.2 -32 40.2 -63.7 45.1 -71.2 7.1 -10.9 9.9 -11.7 14.8 -4.2 1.4 2.1 2.6 4.3 2.6 4.8 0 0.5 0.4 1.1 0.8 1.3 0.4 0.1 7.1 10.3 14.8 22.5 7.6 12.3 16.9 27.1 20.6 33 6.3 10 9 14.3 22.3 35.3 2.8 4.3 6.2 9.8 7.6 12.2 1.5 2.4 7 11.2 12.3 19.6 5.3 8.4 9.6 15.7 9.6 16.2 0 0.4 0.4 1 0.8 1.2 0.4 0.2 9.1 13.6 19.2 29.8 10.2 16.2 21 33.6 24.2 38.5 9.8 15.5 16.2 25.8 17.8 28.4 0.8 1.4 2.4 4 3.5 5.6 1.1 1.7 2.5 3.9 3.2 5 0.7 1.1 4.1 6.5 7.5 12 3.5 5.5 6.8 10.7 7.3 11.6 0.6 1 3.1 5.2 5.8 9.4 2.6 4.1 4.7 8.6 4.7 10 0 3.3 -2.6 5.5 -6.5 5.5 -3.2 0 -4.8 -1.6 -26 -26.2 -99.8 -115.6 -157.1 -181.7 -157.7 -181.7 -0.4 -0.1 -9.2 9.7 -19.6 21.7 -67.6 77.7 -84.4 97.1 -117 134.7 -49.6 57.2 -45.2 52.6 -49.7 51.7z"/>
  <path d="M238 377.5 l0 -10.5 -14.5 0 -14.5 0 0 -8.3 0 -8.3 7 0.2 c3.9 0.1 7.3 -0.3 7.6 -0.8 0.7 -1.1 0.6 -73.9 -0.1 -74.6 -0.2 -0.3 -3.6 -0.4 -7.5 -0.3 l-7 0.2 0 -8.5 0 -8.5 14.3 -0.3 14.2 -0.3 0.3 -9.7 0.3 -9.8 5.4 0 5.4 0 0.3 9.8 0.3 9.7 4.2 0.3 c5.1 0.4 5.5 -0.5 5 -12 l-0.3 -7.8 6.3 0 6.3 0 0 9.8 0 9.8 7 1.2 c3.9 0.7 9.4 2.4 12.3 3.8 5.8 2.9 10.9 7.2 10.1 8.6 -0.3 0.4 -0.1 0.8 0.5 0.8 1.8 0 4 5.5 4.5 11.1 1 10.4 -5 20.8 -13.8 24 -4.5 1.6 -4.6 2.5 -0.3 3.3 5.4 1 13.4 6.3 16.5 10.9 9.4 13.6 4.9 31.4 -10.2 40.2 -4.9 2.9 -15.3 5.5 -21.8 5.5 l-4.8 0 0 10.5 0 10.5 -6 0 -6 0 0 -10.5 0 -10.5 -5 0 -5 0 0 10.5 0 10.5 -5.5 0 -5.5 0 0 -10.5z m40.7 -29.2 c5.5 -2.7 7.4 -6 7.4 -12.7 0 -7.5 -2.6 -11.9 -8.5 -14.1 -3.2 -1.2 -8 -1.7 -17.2 -1.8 l-12.9 -0.2 -0.3 15.8 -0.3 15.8 14.1 -0.5 c10.9 -0.3 14.9 -0.9 17.7 -2.3z m-4.9 -47.7 c4.6 -2.4 6.3 -5.5 6.3 -11.9 0.2 -10.8 -4.1 -13.7 -21.2 -14.4 l-11.9 -0.6 0 14.5 0 14.5 11.8 -0.2 c8.6 -0.2 12.7 -0.7 15 -1.9z"/>
 </g>
</svg>